Coordinates
version=1
nRows=16
nColumns=40
inDegrees=yes

Units are S.I. units (second, meters, Newtons, ...)
Angles are in degrees.

endheader
time	pelvis_tilt	pelvis_list	pelvis_rotation	pelvis_tx	pelvis_ty	pelvis_tz	hip_flexion_r	hip_adduction_r	hip_rotation_r	knee_angle_r	knee_angle_r_beta	ankle_angle_r	subtalar_angle_r	mtp_angle_r	hip_flexion_l	hip_adduction_l	hip_rotation_l	knee_angle_l	knee_angle_l_beta	ankle_angle_l	subtalar_angle_l	mtp_angle_l	lumbar_extension	lumbar_bending	lumbar_rotation	arm_flex_r	arm_add_r	arm_rot_r	elbow_flex_r	pro_sup_r	wrist_flex_r	wrist_dev_r	arm_flex_l	arm_add_l	arm_rot_l	elbow_flex_l	pro_sup_l	wrist_flex_l	wrist_dev_l
     34.44500000	     -3.46854326	     -5.87696990	     -1.60071464	      1.00091433	      0.92821995	      0.49541712	     18.38795867	      2.93893528	    -12.09423283	     18.35543290	     18.35543290	      6.23143638	      0.89178945	     -1.37537059	      3.54094627	    -11.74692891	    -12.53900228	     33.04521150	     33.04521150	     16.22106431	     -3.15060506	    -11.84224179	     -9.01335444	      2.27982746	      0.14223580	    -13.33640075	    -13.58382493	     -3.62108427	     31.41848616	     46.25333804	      0.00000000	      0.00000000	      7.75080085	    -15.03635738	    -10.02090812	     85.35387314	     47.73368058	      0.00000000	      0.00000000
     34.45685714	     -3.56464206	     -6.08605918	     -1.56849450	      1.00035960	      0.92887988	      0.49825115	     17.61837382	      3.37967408	    -12.37387365	     17.76822788	     17.76822788	      6.48198664	      1.48842015	     -1.64232614	      5.01515656	    -12.65892355	    -11.63598799	     36.00011726	     36.00011726	     12.43824388	     -5.33292947	    -18.17211216	     -8.95320317	      2.48861450	      0.28293767	    -12.15608365	    -13.85072151	     -1.46482480	     34.03080517	     45.99520593	      0.00000000	      0.00000000	      6.58198237	    -14.70110141	     -9.75881274	     83.57890345	     47.71013645	      0.00000000	      0.00000000
     34.46871429	     -3.61545916	     -6.27167642	     -1.53840471	      0.99983214	      0.92938413	      0.50103222	     16.83822551	      3.81759120	    -12.51148504	     17.25358014	     17.25358014	      6.76850814	      1.86219484	     -1.84739057	      6.72823098	    -13.53224463	    -10.48531642	     39.47111206	     39.47111206	      9.38780226	     -7.12596560	    -21.67032305	     -8.91496118	      2.64464391	      0.36343462	    -10.62820753	    -14.01235143	     -0.16435783	     36.11420261	     45.83364621	      0.00000000	      0.00000000	      5.29884795	    -14.43886137	     -9.40021862	     82.06251284	     47.67669882	      0.00000000	      0.00000000
     34.48057143	     -3.66031896	     -6.48220809	     -1.52822268	      0.99928469	      0.92966933	      0.50379902	     16.11010132	      4.27591006	    -12.60362162	     16.84613985	     16.84613985	      7.09281869	      2.17268831	     -1.93493257	      8.67583702	    -14.47019311	     -9.27475664	     43.37237920	     43.37237920	      7.08323804	     -7.78925602	    -22.61689189	     -8.88693260	      2.82612065	      0.43981727	     -8.76616289	    -13.90750879	     -0.07163766	     37.37627651	     45.79009107	      0.00000000	      0.00000000	      3.92126881	    -14.20851204	     -9.04049948	     80.60019448	     47.62222127	      0.00000000	      0.00000000
     34.49242857	     -3.65997578	     -6.68919874	     -1.50728392	      0.99871823	      0.92973144	      0.50645653	     15.41898523	      4.71545495	    -12.61157203	     16.59498558	     16.59498558	      7.50679632	      2.35579707	     -2.08400645	     10.68630948	    -15.28081010	     -7.79058948	     47.25268729	     47.25268729	      4.24737143	     -8.66346764	    -23.59725672	     -8.89023839	      2.97377498	      0.42440931	     -6.83809569	    -13.87123772	      0.01556786	     38.95568933	     45.73510340	      0.00000000	      0.00000000	      2.60339627	    -13.94087038	     -8.75108668	     78.77759478	     47.56542187	      0.00000000	      0.00000000
     34.50428571	     -3.61725471	     -6.69328796	     -1.53587131	      0.99813058	      0.92973706	      0.50877415	     14.78628970	      4.90825266	    -12.44949196	     16.52529181	     16.52529181	      7.88479401	      2.38859739	     -2.48936657	     12.57268294	    -15.57307279	     -6.02695786	     50.71991356	     50.71991356	      0.18928865	    -10.86955517	    -25.93465695	     -8.88260358	      3.01061687	      0.79269332	     -6.21734154	    -14.59998265	      1.83842089	     43.95874663	     45.44975554	      0.00000000	      0.00000000	      2.14699815	    -13.36763919	     -8.48494512	     74.99372968	     47.49577821	      0.00000000	      0.00000000
     34.51614286	     -3.58947756	     -6.78698836	     -1.51133750	      0.99739421	      0.92948122	      0.51098981	     14.24778700	      5.17433931	    -12.29034404	     16.58280736	     16.58280736	      8.38369869	      2.28258671	     -2.67005026	     14.71212895	    -15.91036377	     -4.18662794	     54.47010766	     54.47010766	     -2.94664363	    -11.78122370	    -25.53959815	     -8.88203912	      3.07323011	      0.57098761	     -4.08445254	    -14.52887173	      1.85552829	     45.82952021	     45.39293288	      0.00000000	      0.00000000	      0.88307157	    -13.14456153	     -8.27999823	     72.61382128	     47.43598155	      0.00000000	      0.00000000
     34.52800000	     -3.48156451	     -6.86894705	     -1.47666356	      0.99660765	      0.92918028	      0.51293445	     13.71324503	      5.38677585	    -12.12140781	     16.80954147	     16.80954147	      8.94467397	      2.12008629	     -2.86830993	     16.77328558	    -16.02368749	     -2.25537098	     58.02215864	     58.02215864	     -6.09766972	    -12.83702947	    -24.63970048	     -8.96809749	      3.18969216	      0.93722582	     -2.84446932	    -15.04141214	      2.64261182	     49.54375773	     45.23377457	      0.00000000	      0.00000000	      0.70411567	    -12.30719407	     -8.45657724	     68.40458172	     47.38148913	      0.00000000	      0.00000000
     34.53985714	     -3.36707660	     -7.04893720	     -1.35657939	      0.99575124	      0.92876887	      0.51470618	     13.14293203	      5.68975127	    -12.05204223	     16.96771213	     16.96771213	      9.49090939	      1.95828733	     -3.03601816	     18.88096425	    -16.09126512	     -0.25899807	     61.39978902	     61.39978902	     -9.00148606	    -13.77974666	    -23.17714022	     -9.07865864	      3.36289889	      0.65034245	     -0.53854289	    -14.95302545	      2.49071320	     51.41338658	     45.18719028	      0.00000000	      0.00000000	     -0.59782018	    -12.06971834	     -8.12775832	     66.28832348	     47.31522344	      0.00000000	      0.00000000
     34.55171429	     -3.22248818	     -6.92955106	     -1.27954450	      0.99474330	      0.92842011	      0.51610893	     12.73395935	      5.61399558	    -11.85361851	     17.48457917	     17.48457917	     10.20385789	      1.70407790	     -3.18524677	     20.92696330	    -15.61325772	      1.53892791	     64.62272188	     64.62272188	    -10.67397888	    -14.33168690	    -18.81588095	     -9.19109711	      3.28520952	      0.71266260	      1.06252639	    -15.35165894	      3.27519816	     55.48538022	     45.02648304	      0.00000000	      0.00000000	     -0.49916432	    -11.33993203	     -8.41192711	     60.91913215	     47.25425447	      0.00000000	      0.00000000
     34.56357143	     -3.13543037	     -7.04918055	     -1.12594268	      0.99365754	      0.92799255	      0.51738229	     12.18605403	      5.81154365	    -11.84015066	     17.60174854	     17.60174854	     10.81090584	      1.66406810	     -3.09284666	     23.14625791	    -15.33813460	      3.25070802	     67.72988998	     67.72988998	    -11.37136946	    -14.56421362	    -13.04843169	     -9.26567060	      3.47786996	      1.10178973	      2.46485170	    -15.87365755	      3.69857108	     59.39505708	     44.90224241	      0.00000000	      0.00000000	     -0.36970744	    -10.55740111	     -8.37593892	     56.29676931	     47.17667877	      0.00000000	      0.00000000
     34.57542857	     -3.00433385	     -7.07290176	     -0.92712164	      0.99250229	      0.92766626	      0.51842901	     11.66569508	      5.87335910	    -11.84188067	     17.86137810	     17.86137810	     11.44640442	      1.56384470	     -3.10961910	     25.19284601	    -14.84652200	      4.73066502	     70.34496668	     70.34496668	    -11.91927618	    -15.52904668	     -7.83782028	     -9.39392014	      3.55941545	      1.06147713	      4.48932614	    -16.01861504	      3.84300402	     62.58288403	     44.81921826	      0.00000000	      0.00000000	     -0.56506351	     -9.99468092	     -8.38558468	     51.94784472	     47.10768609	      0.00000000	      0.00000000
     34.58728571	     -2.94193655	     -7.14223619	     -0.73281090	      0.99127316	      0.92739132	      0.51942864	     11.07603737	      6.02131639	    -11.85437780	     17.82830260	     17.82830260	     11.99260015	      1.54107720	     -3.01970493	     27.26972532	    -14.41102894	      5.92888260	     72.58698016	     72.58698016	    -11.80946086	    -16.61931070	     -2.20080739	     -9.47289915	      3.68728549	      1.23235341	      6.48765578	    -16.20633501	      4.01278061	     65.86670437	     44.73852584	      0.00000000	      0.00000000	     -0.63464015	     -9.36098206	     -8.54665990	     47.54331091	     47.05139715	      0.00000000	      0.00000000
     34.59914286	     -2.87902830	     -7.25981969	     -0.50508437	      0.98992903	      0.92718375	      0.52032374	     10.42018497	      6.22928932	    -11.89560695	     17.65154871	     17.65154871	     12.46517299	      1.53166838	     -2.90723214	     29.34168077	    -14.14003103	      6.76516960	     74.45290157	     74.45290157	    -11.13536456	    -17.75696380	      3.26270235	     -9.59406915	      3.85695980	      1.28634590	      8.53716644	    -16.32211212	      4.03953146	     69.03524810	     44.67404038	      0.00000000	      0.00000000	     -0.74301629	     -8.77071426	     -8.77363563	     43.41535825	     47.00521452	      0.00000000	      0.00000000
     34.61100000	     -2.80555653	     -7.41428373	     -0.39335705	      0.98858937	      0.92710722	      0.52153123	      9.70916513	      6.52175960	    -11.82834631	     17.39433099	     17.39433099	     12.84380623	      1.58313147	     -2.93992859	     31.12401484	    -14.29978999	      7.00378401	     75.56395176	     75.56395176	    -11.33433658	    -18.93946915	      3.99930931	     -9.74754392	      3.96960568	      1.78352078	     11.13125105	    -16.35303473	      3.64203456	     70.44712720	     44.65473566	      0.00000000	      0.00000000	     -1.76694242	     -8.35399451	     -8.65226910	     42.43521843	     46.96923780	      0.00000000	      0.00000000
     34.62285714	     -2.81341169	     -7.58552346	     -0.05634899	      0.98715206	      0.92703153	      0.52219664	      8.92021587	      6.84739266	    -11.87785486	     16.77557827	     16.77557827	     13.11269054	      1.43996588	     -2.69868313	     33.40707505	    -14.07292156	      7.54532340	     76.86433033	     76.86433033	     -7.88735923	    -19.10184352	     13.52497901	     -9.84012717	      4.26816657	      1.40911479	     13.09150453	    -16.46729388	      4.60537841	     75.17024058	     44.50680303	      0.00000000	      0.00000000	     -1.35095260	     -7.91021293	     -9.00810426	     36.26096025	     46.94955691	      0.00000000	      0.00000000
